<mxfile host="app.diagrams.net" modified="2022-12-23T11:42:50.916Z" agent="5.0 (Windows NT 10.0; Win64; x64) AppleWebKit/537.36 (KHTML, like Gecko) Chrome/108.0.0.0 Safari/537.36" etag="vJXktQi0jbmpCMHHdEVR" version="20.7.4" type="github">
  <diagram id="2UehDQ-gwMGVHUeNF-q4" name="Страница 1">
    <mxGraphModel dx="823" dy="526" grid="1" gridSize="10" guides="1" tooltips="1" connect="1" arrows="1" fold="1" page="1" pageScale="1" pageWidth="827" pageHeight="1169" math="0" shadow="0">
      <root>
        <mxCell id="0" />
        <mxCell id="1" parent="0" />
        <mxCell id="ZeWEFRF11-8BhGNRs3bP-1" value="AnObject" style="swimlane;fontStyle=0;childLayout=stackLayout;horizontal=1;startSize=30;horizontalStack=0;resizeParent=1;resizeParentMax=0;resizeLast=0;collapsible=1;marginBottom=0;whiteSpace=wrap;html=1;" vertex="1" parent="1">
          <mxGeometry x="240" y="80" width="80" height="120" as="geometry" />
        </mxCell>
        <mxCell id="ZeWEFRF11-8BhGNRs3bP-2" value="build()" style="text;strokeColor=none;fillColor=none;align=left;verticalAlign=middle;spacingLeft=4;spacingRight=4;overflow=hidden;points=[[0,0.5],[1,0.5]];portConstraint=eastwest;rotatable=0;whiteSpace=wrap;html=1;" vertex="1" parent="ZeWEFRF11-8BhGNRs3bP-1">
          <mxGeometry y="30" width="80" height="30" as="geometry" />
        </mxCell>
        <mxCell id="ZeWEFRF11-8BhGNRs3bP-3" value="repair()" style="text;strokeColor=none;fillColor=none;align=left;verticalAlign=middle;spacingLeft=4;spacingRight=4;overflow=hidden;points=[[0,0.5],[1,0.5]];portConstraint=eastwest;rotatable=0;whiteSpace=wrap;html=1;" vertex="1" parent="ZeWEFRF11-8BhGNRs3bP-1">
          <mxGeometry y="60" width="80" height="30" as="geometry" />
        </mxCell>
        <mxCell id="ZeWEFRF11-8BhGNRs3bP-4" value="destroy()" style="text;strokeColor=none;fillColor=none;align=left;verticalAlign=middle;spacingLeft=4;spacingRight=4;overflow=hidden;points=[[0,0.5],[1,0.5]];portConstraint=eastwest;rotatable=0;whiteSpace=wrap;html=1;" vertex="1" parent="ZeWEFRF11-8BhGNRs3bP-1">
          <mxGeometry y="90" width="80" height="30" as="geometry" />
        </mxCell>
        <mxCell id="ZeWEFRF11-8BhGNRs3bP-38" style="edgeStyle=orthogonalEdgeStyle;rounded=0;orthogonalLoop=1;jettySize=auto;html=1;exitX=0.5;exitY=0;exitDx=0;exitDy=0;entryX=0.514;entryY=0.984;entryDx=0;entryDy=0;entryPerimeter=0;" edge="1" parent="1" source="ZeWEFRF11-8BhGNRs3bP-5" target="ZeWEFRF11-8BhGNRs3bP-18">
          <mxGeometry relative="1" as="geometry" />
        </mxCell>
        <mxCell id="ZeWEFRF11-8BhGNRs3bP-5" value="BuildCommand" style="swimlane;fontStyle=0;childLayout=stackLayout;horizontal=1;startSize=30;horizontalStack=0;resizeParent=1;resizeParentMax=0;resizeLast=0;collapsible=1;marginBottom=0;whiteSpace=wrap;html=1;" vertex="1" parent="1">
          <mxGeometry x="40" y="280" width="150" height="120" as="geometry" />
        </mxCell>
        <mxCell id="ZeWEFRF11-8BhGNRs3bP-6" value="anObject" style="text;strokeColor=none;fillColor=none;align=left;verticalAlign=middle;spacingLeft=4;spacingRight=4;overflow=hidden;points=[[0,0.5],[1,0.5]];portConstraint=eastwest;rotatable=0;whiteSpace=wrap;html=1;" vertex="1" parent="ZeWEFRF11-8BhGNRs3bP-5">
          <mxGeometry y="30" width="150" height="30" as="geometry" />
        </mxCell>
        <mxCell id="ZeWEFRF11-8BhGNRs3bP-7" value="&lt;span style=&quot;text-align: center;&quot;&gt;BuildCommand(AnObject)&lt;/span&gt;" style="text;strokeColor=none;fillColor=none;align=left;verticalAlign=middle;spacingLeft=4;spacingRight=4;overflow=hidden;points=[[0,0.5],[1,0.5]];portConstraint=eastwest;rotatable=0;whiteSpace=wrap;html=1;" vertex="1" parent="ZeWEFRF11-8BhGNRs3bP-5">
          <mxGeometry y="60" width="150" height="30" as="geometry" />
        </mxCell>
        <mxCell id="ZeWEFRF11-8BhGNRs3bP-8" value="execute()" style="text;strokeColor=none;fillColor=none;align=left;verticalAlign=middle;spacingLeft=4;spacingRight=4;overflow=hidden;points=[[0,0.5],[1,0.5]];portConstraint=eastwest;rotatable=0;whiteSpace=wrap;html=1;" vertex="1" parent="ZeWEFRF11-8BhGNRs3bP-5">
          <mxGeometry y="90" width="150" height="30" as="geometry" />
        </mxCell>
        <mxCell id="ZeWEFRF11-8BhGNRs3bP-32" style="edgeStyle=orthogonalEdgeStyle;rounded=0;orthogonalLoop=1;jettySize=auto;html=1;exitX=0.5;exitY=0;exitDx=0;exitDy=0;entryX=0.506;entryY=0.984;entryDx=0;entryDy=0;entryPerimeter=0;" edge="1" parent="1" source="ZeWEFRF11-8BhGNRs3bP-9" target="ZeWEFRF11-8BhGNRs3bP-18">
          <mxGeometry relative="1" as="geometry" />
        </mxCell>
        <mxCell id="ZeWEFRF11-8BhGNRs3bP-9" value="RepairCommand" style="swimlane;fontStyle=0;childLayout=stackLayout;horizontal=1;startSize=30;horizontalStack=0;resizeParent=1;resizeParentMax=0;resizeLast=0;collapsible=1;marginBottom=0;whiteSpace=wrap;html=1;" vertex="1" parent="1">
          <mxGeometry x="200" y="280" width="160" height="120" as="geometry" />
        </mxCell>
        <mxCell id="ZeWEFRF11-8BhGNRs3bP-10" value="anObject" style="text;strokeColor=none;fillColor=none;align=left;verticalAlign=middle;spacingLeft=4;spacingRight=4;overflow=hidden;points=[[0,0.5],[1,0.5]];portConstraint=eastwest;rotatable=0;whiteSpace=wrap;html=1;" vertex="1" parent="ZeWEFRF11-8BhGNRs3bP-9">
          <mxGeometry y="30" width="160" height="30" as="geometry" />
        </mxCell>
        <mxCell id="ZeWEFRF11-8BhGNRs3bP-11" value="&lt;span style=&quot;text-align: center;&quot;&gt;RepairCommand(AnObject)&lt;/span&gt;" style="text;strokeColor=none;fillColor=none;align=left;verticalAlign=middle;spacingLeft=4;spacingRight=4;overflow=hidden;points=[[0,0.5],[1,0.5]];portConstraint=eastwest;rotatable=0;whiteSpace=wrap;html=1;" vertex="1" parent="ZeWEFRF11-8BhGNRs3bP-9">
          <mxGeometry y="60" width="160" height="30" as="geometry" />
        </mxCell>
        <mxCell id="ZeWEFRF11-8BhGNRs3bP-12" value="execute()" style="text;strokeColor=none;fillColor=none;align=left;verticalAlign=middle;spacingLeft=4;spacingRight=4;overflow=hidden;points=[[0,0.5],[1,0.5]];portConstraint=eastwest;rotatable=0;whiteSpace=wrap;html=1;" vertex="1" parent="ZeWEFRF11-8BhGNRs3bP-9">
          <mxGeometry y="90" width="160" height="30" as="geometry" />
        </mxCell>
        <mxCell id="ZeWEFRF11-8BhGNRs3bP-31" style="edgeStyle=orthogonalEdgeStyle;rounded=0;orthogonalLoop=1;jettySize=auto;html=1;exitX=0.5;exitY=0;exitDx=0;exitDy=0;entryX=0.506;entryY=1.007;entryDx=0;entryDy=0;entryPerimeter=0;" edge="1" parent="1" source="ZeWEFRF11-8BhGNRs3bP-13" target="ZeWEFRF11-8BhGNRs3bP-18">
          <mxGeometry relative="1" as="geometry" />
        </mxCell>
        <mxCell id="ZeWEFRF11-8BhGNRs3bP-13" value="DestroyCommand" style="swimlane;fontStyle=0;childLayout=stackLayout;horizontal=1;startSize=30;horizontalStack=0;resizeParent=1;resizeParentMax=0;resizeLast=0;collapsible=1;marginBottom=0;whiteSpace=wrap;html=1;" vertex="1" parent="1">
          <mxGeometry x="370" y="280" width="170" height="120" as="geometry" />
        </mxCell>
        <mxCell id="ZeWEFRF11-8BhGNRs3bP-14" value="anObject" style="text;strokeColor=none;fillColor=none;align=left;verticalAlign=middle;spacingLeft=4;spacingRight=4;overflow=hidden;points=[[0,0.5],[1,0.5]];portConstraint=eastwest;rotatable=0;whiteSpace=wrap;html=1;" vertex="1" parent="ZeWEFRF11-8BhGNRs3bP-13">
          <mxGeometry y="30" width="170" height="30" as="geometry" />
        </mxCell>
        <mxCell id="ZeWEFRF11-8BhGNRs3bP-15" value="&lt;span style=&quot;text-align: center;&quot;&gt;DestroyCommand(AnObject)&lt;/span&gt;" style="text;strokeColor=none;fillColor=none;align=left;verticalAlign=middle;spacingLeft=4;spacingRight=4;overflow=hidden;points=[[0,0.5],[1,0.5]];portConstraint=eastwest;rotatable=0;whiteSpace=wrap;html=1;" vertex="1" parent="ZeWEFRF11-8BhGNRs3bP-13">
          <mxGeometry y="60" width="170" height="30" as="geometry" />
        </mxCell>
        <mxCell id="ZeWEFRF11-8BhGNRs3bP-16" value="execute()" style="text;strokeColor=none;fillColor=none;align=left;verticalAlign=middle;spacingLeft=4;spacingRight=4;overflow=hidden;points=[[0,0.5],[1,0.5]];portConstraint=eastwest;rotatable=0;whiteSpace=wrap;html=1;" vertex="1" parent="ZeWEFRF11-8BhGNRs3bP-13">
          <mxGeometry y="90" width="170" height="30" as="geometry" />
        </mxCell>
        <mxCell id="ZeWEFRF11-8BhGNRs3bP-17" value="Command" style="swimlane;fontStyle=0;childLayout=stackLayout;horizontal=1;startSize=30;horizontalStack=0;resizeParent=1;resizeParentMax=0;resizeLast=0;collapsible=1;marginBottom=0;whiteSpace=wrap;html=1;" vertex="1" parent="1">
          <mxGeometry x="440" y="80" width="80" height="60" as="geometry" />
        </mxCell>
        <mxCell id="ZeWEFRF11-8BhGNRs3bP-18" value="execute()" style="text;strokeColor=none;fillColor=none;align=left;verticalAlign=middle;spacingLeft=4;spacingRight=4;overflow=hidden;points=[[0,0.5],[1,0.5]];portConstraint=eastwest;rotatable=0;whiteSpace=wrap;html=1;" vertex="1" parent="ZeWEFRF11-8BhGNRs3bP-17">
          <mxGeometry y="30" width="80" height="30" as="geometry" />
        </mxCell>
        <mxCell id="ZeWEFRF11-8BhGNRs3bP-21" value="Builder" style="swimlane;fontStyle=0;childLayout=stackLayout;horizontal=1;startSize=30;horizontalStack=0;resizeParent=1;resizeParentMax=0;resizeLast=0;collapsible=1;marginBottom=0;whiteSpace=wrap;html=1;" vertex="1" parent="1">
          <mxGeometry x="560" y="280" width="160" height="120" as="geometry" />
        </mxCell>
        <mxCell id="ZeWEFRF11-8BhGNRs3bP-22" value="&lt;span style=&quot;text-align: center;&quot;&gt;BuildCommand()&lt;/span&gt;" style="text;strokeColor=none;fillColor=none;align=left;verticalAlign=middle;spacingLeft=4;spacingRight=4;overflow=hidden;points=[[0,0.5],[1,0.5]];portConstraint=eastwest;rotatable=0;whiteSpace=wrap;html=1;" vertex="1" parent="ZeWEFRF11-8BhGNRs3bP-21">
          <mxGeometry y="30" width="160" height="30" as="geometry" />
        </mxCell>
        <mxCell id="ZeWEFRF11-8BhGNRs3bP-23" value="&lt;span style=&quot;text-align: center;&quot;&gt;RepairCommand()&lt;/span&gt;" style="text;strokeColor=none;fillColor=none;align=left;verticalAlign=middle;spacingLeft=4;spacingRight=4;overflow=hidden;points=[[0,0.5],[1,0.5]];portConstraint=eastwest;rotatable=0;whiteSpace=wrap;html=1;" vertex="1" parent="ZeWEFRF11-8BhGNRs3bP-21">
          <mxGeometry y="60" width="160" height="30" as="geometry" />
        </mxCell>
        <mxCell id="ZeWEFRF11-8BhGNRs3bP-24" value="&lt;span style=&quot;text-align: center;&quot;&gt;DestroyCommand()&lt;/span&gt;" style="text;strokeColor=none;fillColor=none;align=left;verticalAlign=middle;spacingLeft=4;spacingRight=4;overflow=hidden;points=[[0,0.5],[1,0.5]];portConstraint=eastwest;rotatable=0;whiteSpace=wrap;html=1;" vertex="1" parent="ZeWEFRF11-8BhGNRs3bP-21">
          <mxGeometry y="90" width="160" height="30" as="geometry" />
        </mxCell>
        <mxCell id="ZeWEFRF11-8BhGNRs3bP-29" value="App" style="swimlane;fontStyle=0;childLayout=stackLayout;horizontal=1;startSize=30;horizontalStack=0;resizeParent=1;resizeParentMax=0;resizeLast=0;collapsible=1;marginBottom=0;whiteSpace=wrap;html=1;" vertex="1" parent="1">
          <mxGeometry x="340" y="480" width="90" height="60" as="geometry" />
        </mxCell>
        <mxCell id="ZeWEFRF11-8BhGNRs3bP-30" value="main(String[])" style="text;strokeColor=none;fillColor=none;align=left;verticalAlign=middle;spacingLeft=4;spacingRight=4;overflow=hidden;points=[[0,0.5],[1,0.5]];portConstraint=eastwest;rotatable=0;whiteSpace=wrap;html=1;" vertex="1" parent="ZeWEFRF11-8BhGNRs3bP-29">
          <mxGeometry y="30" width="90" height="30" as="geometry" />
        </mxCell>
        <mxCell id="ZeWEFRF11-8BhGNRs3bP-39" value="" style="endArrow=none;dashed=1;html=1;rounded=0;entryX=0.498;entryY=1.053;entryDx=0;entryDy=0;entryPerimeter=0;" edge="1" parent="1" target="ZeWEFRF11-8BhGNRs3bP-12">
          <mxGeometry width="50" height="50" relative="1" as="geometry">
            <mxPoint x="390" y="480" as="sourcePoint" />
            <mxPoint x="430" y="280" as="targetPoint" />
            <Array as="points">
              <mxPoint x="390" y="440" />
              <mxPoint x="280" y="440" />
            </Array>
          </mxGeometry>
        </mxCell>
        <mxCell id="ZeWEFRF11-8BhGNRs3bP-40" value="" style="endArrow=none;dashed=1;html=1;rounded=0;entryX=0.504;entryY=1.076;entryDx=0;entryDy=0;entryPerimeter=0;" edge="1" parent="1" target="ZeWEFRF11-8BhGNRs3bP-16">
          <mxGeometry width="50" height="50" relative="1" as="geometry">
            <mxPoint x="390" y="480" as="sourcePoint" />
            <mxPoint x="289.68000000000006" y="411.59000000000003" as="targetPoint" />
            <Array as="points">
              <mxPoint x="390" y="440" />
              <mxPoint x="456" y="440" />
            </Array>
          </mxGeometry>
        </mxCell>
        <mxCell id="ZeWEFRF11-8BhGNRs3bP-41" value="" style="endArrow=none;dashed=1;html=1;rounded=0;entryX=0.503;entryY=1.099;entryDx=0;entryDy=0;entryPerimeter=0;" edge="1" parent="1" target="ZeWEFRF11-8BhGNRs3bP-24">
          <mxGeometry width="50" height="50" relative="1" as="geometry">
            <mxPoint x="390" y="480" as="sourcePoint" />
            <mxPoint x="465.68000000000006" y="412.2800000000001" as="targetPoint" />
            <Array as="points">
              <mxPoint x="390" y="440" />
              <mxPoint x="640" y="440" />
            </Array>
          </mxGeometry>
        </mxCell>
        <mxCell id="ZeWEFRF11-8BhGNRs3bP-42" value="" style="endArrow=none;dashed=1;html=1;rounded=0;entryX=0.495;entryY=1.122;entryDx=0;entryDy=0;entryPerimeter=0;" edge="1" parent="1" target="ZeWEFRF11-8BhGNRs3bP-8">
          <mxGeometry width="50" height="50" relative="1" as="geometry">
            <mxPoint x="390" y="480" as="sourcePoint" />
            <mxPoint x="650.48" y="412.97" as="targetPoint" />
            <Array as="points">
              <mxPoint x="390" y="440" />
              <mxPoint x="114" y="440" />
            </Array>
          </mxGeometry>
        </mxCell>
        <mxCell id="ZeWEFRF11-8BhGNRs3bP-43" value="" style="endArrow=none;dashed=1;html=1;rounded=0;entryX=0;entryY=0.25;entryDx=0;entryDy=0;" edge="1" parent="1" target="ZeWEFRF11-8BhGNRs3bP-1">
          <mxGeometry width="50" height="50" relative="1" as="geometry">
            <mxPoint x="390" y="480" as="sourcePoint" />
            <mxPoint x="430" y="280" as="targetPoint" />
            <Array as="points">
              <mxPoint x="390" y="440" />
              <mxPoint x="20" y="440" />
              <mxPoint x="20" y="110" />
            </Array>
          </mxGeometry>
        </mxCell>
        <mxCell id="ZeWEFRF11-8BhGNRs3bP-44" value="" style="endArrow=classic;html=1;rounded=0;exitX=0.25;exitY=0;exitDx=0;exitDy=0;entryX=-0.003;entryY=0.674;entryDx=0;entryDy=0;entryPerimeter=0;" edge="1" parent="1" source="ZeWEFRF11-8BhGNRs3bP-9" target="ZeWEFRF11-8BhGNRs3bP-3">
          <mxGeometry relative="1" as="geometry">
            <mxPoint x="350" y="300" as="sourcePoint" />
            <mxPoint x="450" y="300" as="targetPoint" />
            <Array as="points">
              <mxPoint x="240" y="240" />
              <mxPoint x="200" y="240" />
              <mxPoint x="200" y="160" />
            </Array>
          </mxGeometry>
        </mxCell>
        <mxCell id="ZeWEFRF11-8BhGNRs3bP-45" value="1" style="edgeLabel;resizable=0;html=1;align=center;verticalAlign=middle;" connectable="0" vertex="1" parent="ZeWEFRF11-8BhGNRs3bP-44">
          <mxGeometry relative="1" as="geometry" />
        </mxCell>
        <mxCell id="ZeWEFRF11-8BhGNRs3bP-46" value="" style="endArrow=classic;html=1;rounded=0;exitX=0.204;exitY=0.003;exitDx=0;exitDy=0;exitPerimeter=0;" edge="1" parent="1" source="ZeWEFRF11-8BhGNRs3bP-5">
          <mxGeometry relative="1" as="geometry">
            <mxPoint x="250" y="290" as="sourcePoint" />
            <mxPoint x="240" y="160" as="targetPoint" />
            <Array as="points">
              <mxPoint x="70" y="160" />
            </Array>
          </mxGeometry>
        </mxCell>
        <mxCell id="ZeWEFRF11-8BhGNRs3bP-47" value="1" style="edgeLabel;resizable=0;html=1;align=center;verticalAlign=middle;" connectable="0" vertex="1" parent="ZeWEFRF11-8BhGNRs3bP-46">
          <mxGeometry relative="1" as="geometry" />
        </mxCell>
        <mxCell id="ZeWEFRF11-8BhGNRs3bP-48" value="" style="endArrow=classic;html=1;rounded=0;exitX=0.175;exitY=-0.011;exitDx=0;exitDy=0;entryX=-0.018;entryY=0.674;entryDx=0;entryDy=0;entryPerimeter=0;exitPerimeter=0;" edge="1" parent="1" source="ZeWEFRF11-8BhGNRs3bP-13" target="ZeWEFRF11-8BhGNRs3bP-3">
          <mxGeometry relative="1" as="geometry">
            <mxPoint x="250" y="290" as="sourcePoint" />
            <mxPoint x="249.76" y="170.22000000000003" as="targetPoint" />
            <Array as="points">
              <mxPoint x="400" y="240" />
              <mxPoint x="240" y="240" />
              <mxPoint x="200" y="240" />
              <mxPoint x="200" y="160" />
            </Array>
          </mxGeometry>
        </mxCell>
        <mxCell id="ZeWEFRF11-8BhGNRs3bP-49" value="1" style="edgeLabel;resizable=0;html=1;align=center;verticalAlign=middle;" connectable="0" vertex="1" parent="ZeWEFRF11-8BhGNRs3bP-48">
          <mxGeometry relative="1" as="geometry" />
        </mxCell>
        <mxCell id="ZeWEFRF11-8BhGNRs3bP-50" value="" style="endArrow=classic;html=1;rounded=0;exitX=0.5;exitY=0;exitDx=0;exitDy=0;entryX=0.79;entryY=1.053;entryDx=0;entryDy=0;entryPerimeter=0;" edge="1" parent="1" source="ZeWEFRF11-8BhGNRs3bP-21" target="ZeWEFRF11-8BhGNRs3bP-18">
          <mxGeometry relative="1" as="geometry">
            <mxPoint x="410" y="150" as="sourcePoint" />
            <mxPoint x="510" y="150" as="targetPoint" />
            <Array as="points">
              <mxPoint x="640" y="210" />
              <mxPoint x="503" y="210" />
            </Array>
          </mxGeometry>
        </mxCell>
        <mxCell id="ZeWEFRF11-8BhGNRs3bP-51" value="1" style="edgeLabel;resizable=0;html=1;align=center;verticalAlign=middle;" connectable="0" vertex="1" parent="ZeWEFRF11-8BhGNRs3bP-50">
          <mxGeometry relative="1" as="geometry" />
        </mxCell>
      </root>
    </mxGraphModel>
  </diagram>
</mxfile>
